<mxfile host="app.diagrams.net" modified="2021-05-11T20:03:34.966Z" agent="5.0 (Windows NT 10.0; Win64; x64) AppleWebKit/537.36 (KHTML, like Gecko) Chrome/90.0.4430.212 Safari/537.36" etag="MH-NHTI9zbjepZsTzWMO" version="14.6.9" type="github">
  <diagram id="-EkToZXz6IpFidguX8vV" name="Página-1">
    <mxGraphModel dx="2200" dy="447" grid="0" gridSize="10" guides="1" tooltips="1" connect="1" arrows="1" fold="1" page="0" pageScale="1" pageWidth="827" pageHeight="1169" math="0" shadow="0">
      <root>
        <mxCell id="0" />
        <mxCell id="1" parent="0" />
        <mxCell id="8jfB2x_in3vzI59CDTxY-3" value="" style="edgeStyle=orthogonalEdgeStyle;rounded=0;orthogonalLoop=1;jettySize=auto;html=1;endArrow=none;endFill=0;" parent="1" source="8jfB2x_in3vzI59CDTxY-1" target="8jfB2x_in3vzI59CDTxY-2" edge="1">
          <mxGeometry relative="1" as="geometry" />
        </mxCell>
        <mxCell id="8jfB2x_in3vzI59CDTxY-1" value="&lt;font style=&quot;vertical-align: inherit&quot;&gt;&lt;font style=&quot;vertical-align: inherit&quot;&gt;AGA&lt;/font&gt;&lt;/font&gt;" style="rounded=0;whiteSpace=wrap;html=1;" parent="1" vertex="1">
          <mxGeometry x="490" y="680" width="120" height="60" as="geometry" />
        </mxCell>
        <mxCell id="8jfB2x_in3vzI59CDTxY-5" value="" style="edgeStyle=orthogonalEdgeStyle;rounded=0;orthogonalLoop=1;jettySize=auto;html=1;endArrow=none;endFill=0;" parent="1" source="8jfB2x_in3vzI59CDTxY-2" target="8jfB2x_in3vzI59CDTxY-4" edge="1">
          <mxGeometry relative="1" as="geometry" />
        </mxCell>
        <mxCell id="8jfB2x_in3vzI59CDTxY-54" style="edgeStyle=orthogonalEdgeStyle;rounded=0;orthogonalLoop=1;jettySize=auto;html=1;endArrow=none;endFill=0;" parent="1" source="8jfB2x_in3vzI59CDTxY-2" target="8jfB2x_in3vzI59CDTxY-7" edge="1">
          <mxGeometry relative="1" as="geometry">
            <Array as="points">
              <mxPoint x="550" y="900" />
              <mxPoint x="1190" y="900" />
            </Array>
          </mxGeometry>
        </mxCell>
        <mxCell id="8jfB2x_in3vzI59CDTxY-55" style="edgeStyle=orthogonalEdgeStyle;rounded=0;orthogonalLoop=1;jettySize=auto;html=1;endArrow=none;endFill=0;" parent="1" source="8jfB2x_in3vzI59CDTxY-2" target="8jfB2x_in3vzI59CDTxY-8" edge="1">
          <mxGeometry relative="1" as="geometry">
            <Array as="points">
              <mxPoint x="550" y="900" />
              <mxPoint x="-90" y="900" />
            </Array>
          </mxGeometry>
        </mxCell>
        <mxCell id="8jfB2x_in3vzI59CDTxY-61" value="" style="edgeStyle=orthogonalEdgeStyle;rounded=0;orthogonalLoop=1;jettySize=auto;html=1;dashed=1;endArrow=none;endFill=0;" parent="1" source="8jfB2x_in3vzI59CDTxY-2" target="8jfB2x_in3vzI59CDTxY-60" edge="1">
          <mxGeometry relative="1" as="geometry" />
        </mxCell>
        <mxCell id="8jfB2x_in3vzI59CDTxY-2" value="Directorio" style="whiteSpace=wrap;html=1;rounded=0;" parent="1" vertex="1">
          <mxGeometry x="490" y="800" width="120" height="60" as="geometry" />
        </mxCell>
        <mxCell id="8jfB2x_in3vzI59CDTxY-13" value="" style="edgeStyle=orthogonalEdgeStyle;rounded=0;orthogonalLoop=1;jettySize=auto;html=1;endArrow=none;endFill=0;" parent="1" source="8jfB2x_in3vzI59CDTxY-4" target="8jfB2x_in3vzI59CDTxY-12" edge="1">
          <mxGeometry relative="1" as="geometry" />
        </mxCell>
        <mxCell id="8jfB2x_in3vzI59CDTxY-48" style="edgeStyle=orthogonalEdgeStyle;rounded=0;orthogonalLoop=1;jettySize=auto;html=1;endArrow=none;endFill=0;" parent="1" source="8jfB2x_in3vzI59CDTxY-4" target="8jfB2x_in3vzI59CDTxY-24" edge="1">
          <mxGeometry relative="1" as="geometry">
            <Array as="points">
              <mxPoint x="550" y="1040" />
              <mxPoint x="710" y="1040" />
            </Array>
          </mxGeometry>
        </mxCell>
        <mxCell id="8jfB2x_in3vzI59CDTxY-49" style="edgeStyle=orthogonalEdgeStyle;rounded=0;orthogonalLoop=1;jettySize=auto;html=1;endArrow=none;endFill=0;" parent="1" source="8jfB2x_in3vzI59CDTxY-4" target="8jfB2x_in3vzI59CDTxY-15" edge="1">
          <mxGeometry relative="1" as="geometry">
            <Array as="points">
              <mxPoint x="550" y="1040" />
              <mxPoint x="390" y="1040" />
            </Array>
          </mxGeometry>
        </mxCell>
        <mxCell id="8jfB2x_in3vzI59CDTxY-50" style="edgeStyle=orthogonalEdgeStyle;rounded=0;orthogonalLoop=1;jettySize=auto;html=1;endArrow=none;endFill=0;" parent="1" source="8jfB2x_in3vzI59CDTxY-4" target="8jfB2x_in3vzI59CDTxY-20" edge="1">
          <mxGeometry relative="1" as="geometry">
            <Array as="points">
              <mxPoint x="550" y="1040" />
              <mxPoint x="230" y="1040" />
            </Array>
          </mxGeometry>
        </mxCell>
        <mxCell id="8jfB2x_in3vzI59CDTxY-51" style="edgeStyle=orthogonalEdgeStyle;rounded=0;orthogonalLoop=1;jettySize=auto;html=1;endArrow=none;endFill=0;" parent="1" source="8jfB2x_in3vzI59CDTxY-4" target="8jfB2x_in3vzI59CDTxY-16" edge="1">
          <mxGeometry relative="1" as="geometry">
            <Array as="points">
              <mxPoint x="550" y="1040" />
              <mxPoint x="870" y="1040" />
            </Array>
          </mxGeometry>
        </mxCell>
        <mxCell id="8jfB2x_in3vzI59CDTxY-59" value="" style="edgeStyle=orthogonalEdgeStyle;rounded=0;orthogonalLoop=1;jettySize=auto;html=1;endArrow=none;endFill=0;dashed=1;" parent="1" source="8jfB2x_in3vzI59CDTxY-4" target="8jfB2x_in3vzI59CDTxY-58" edge="1">
          <mxGeometry relative="1" as="geometry" />
        </mxCell>
        <mxCell id="8jfB2x_in3vzI59CDTxY-4" value="Gerencia de Ventas" style="whiteSpace=wrap;html=1;rounded=0;" parent="1" vertex="1">
          <mxGeometry x="490" y="940" width="120" height="60" as="geometry" />
        </mxCell>
        <mxCell id="8jfB2x_in3vzI59CDTxY-40" value="" style="edgeStyle=orthogonalEdgeStyle;rounded=0;orthogonalLoop=1;jettySize=auto;html=1;endArrow=none;endFill=0;" parent="1" source="8jfB2x_in3vzI59CDTxY-7" target="8jfB2x_in3vzI59CDTxY-39" edge="1">
          <mxGeometry relative="1" as="geometry">
            <Array as="points">
              <mxPoint x="1190" y="1040" />
              <mxPoint x="1350" y="1040" />
            </Array>
          </mxGeometry>
        </mxCell>
        <mxCell id="8jfB2x_in3vzI59CDTxY-41" style="edgeStyle=orthogonalEdgeStyle;rounded=0;orthogonalLoop=1;jettySize=auto;html=1;entryX=0.5;entryY=0;entryDx=0;entryDy=0;endArrow=none;endFill=0;" parent="1" source="8jfB2x_in3vzI59CDTxY-7" target="8jfB2x_in3vzI59CDTxY-37" edge="1">
          <mxGeometry relative="1" as="geometry">
            <Array as="points">
              <mxPoint x="1190" y="1040" />
              <mxPoint x="1030" y="1040" />
            </Array>
          </mxGeometry>
        </mxCell>
        <mxCell id="8jfB2x_in3vzI59CDTxY-43" value="" style="edgeStyle=orthogonalEdgeStyle;rounded=0;orthogonalLoop=1;jettySize=auto;html=1;endArrow=none;endFill=0;" parent="1" source="8jfB2x_in3vzI59CDTxY-7" target="8jfB2x_in3vzI59CDTxY-42" edge="1">
          <mxGeometry relative="1" as="geometry" />
        </mxCell>
        <mxCell id="gh9KZUdzetE_i40HpZC7-4" value="" style="edgeStyle=orthogonalEdgeStyle;rounded=0;orthogonalLoop=1;jettySize=auto;html=1;endArrow=none;endFill=0;" edge="1" parent="1" source="8jfB2x_in3vzI59CDTxY-7" target="gh9KZUdzetE_i40HpZC7-3">
          <mxGeometry relative="1" as="geometry" />
        </mxCell>
        <mxCell id="8jfB2x_in3vzI59CDTxY-7" value="Gerencia de RRHH" style="whiteSpace=wrap;html=1;rounded=0;" parent="1" vertex="1">
          <mxGeometry x="1130" y="940" width="120" height="60" as="geometry" />
        </mxCell>
        <mxCell id="8jfB2x_in3vzI59CDTxY-26" value="" style="edgeStyle=orthogonalEdgeStyle;rounded=0;orthogonalLoop=1;jettySize=auto;html=1;endArrow=none;endFill=0;startArrow=none;" parent="1" source="8jfB2x_in3vzI59CDTxY-34" target="8jfB2x_in3vzI59CDTxY-25" edge="1">
          <mxGeometry relative="1" as="geometry" />
        </mxCell>
        <mxCell id="8jfB2x_in3vzI59CDTxY-8" value="Gerencia de Producción" style="whiteSpace=wrap;html=1;rounded=0;" parent="1" vertex="1">
          <mxGeometry x="-150" y="940" width="120" height="60" as="geometry" />
        </mxCell>
        <mxCell id="8jfB2x_in3vzI59CDTxY-12" value="Dpto Ciudad de Paraná" style="whiteSpace=wrap;html=1;rounded=0;" parent="1" vertex="1">
          <mxGeometry x="490" y="1080" width="120" height="60" as="geometry" />
        </mxCell>
        <mxCell id="8jfB2x_in3vzI59CDTxY-15" value="Dpto San Rafael" style="whiteSpace=wrap;html=1;rounded=0;" parent="1" vertex="1">
          <mxGeometry x="330" y="1080" width="120" height="60" as="geometry" />
        </mxCell>
        <mxCell id="8jfB2x_in3vzI59CDTxY-16" value="Dpto de Posadas" style="whiteSpace=wrap;html=1;rounded=0;" parent="1" vertex="1">
          <mxGeometry x="810" y="1080" width="120" height="60" as="geometry" />
        </mxCell>
        <mxCell id="8jfB2x_in3vzI59CDTxY-20" value="Administración de Ventas" style="rounded=0;whiteSpace=wrap;html=1;" parent="1" vertex="1">
          <mxGeometry x="170" y="1080" width="120" height="60" as="geometry" />
        </mxCell>
        <mxCell id="8jfB2x_in3vzI59CDTxY-24" value="Sec. de Distribución y Despacho" style="rounded=0;whiteSpace=wrap;html=1;" parent="1" vertex="1">
          <mxGeometry x="650" y="1080" width="120" height="60" as="geometry" />
        </mxCell>
        <mxCell id="8jfB2x_in3vzI59CDTxY-28" value="" style="edgeStyle=orthogonalEdgeStyle;rounded=0;orthogonalLoop=1;jettySize=auto;html=1;endArrow=none;endFill=0;" parent="1" source="8jfB2x_in3vzI59CDTxY-25" target="8jfB2x_in3vzI59CDTxY-27" edge="1">
          <mxGeometry relative="1" as="geometry">
            <Array as="points">
              <mxPoint x="-90" y="1170" />
              <mxPoint x="-260" y="1170" />
            </Array>
          </mxGeometry>
        </mxCell>
        <mxCell id="8jfB2x_in3vzI59CDTxY-30" value="" style="edgeStyle=orthogonalEdgeStyle;rounded=0;orthogonalLoop=1;jettySize=auto;html=1;endArrow=none;endFill=0;" parent="1" source="8jfB2x_in3vzI59CDTxY-25" target="8jfB2x_in3vzI59CDTxY-29" edge="1">
          <mxGeometry relative="1" as="geometry" />
        </mxCell>
        <mxCell id="8jfB2x_in3vzI59CDTxY-31" value="" style="edgeStyle=orthogonalEdgeStyle;rounded=0;orthogonalLoop=1;jettySize=auto;html=1;endArrow=none;endFill=0;" parent="1" source="8jfB2x_in3vzI59CDTxY-25" target="8jfB2x_in3vzI59CDTxY-29" edge="1">
          <mxGeometry relative="1" as="geometry" />
        </mxCell>
        <mxCell id="8jfB2x_in3vzI59CDTxY-33" style="edgeStyle=orthogonalEdgeStyle;rounded=0;orthogonalLoop=1;jettySize=auto;html=1;endArrow=none;endFill=0;" parent="1" source="8jfB2x_in3vzI59CDTxY-25" target="8jfB2x_in3vzI59CDTxY-32" edge="1">
          <mxGeometry relative="1" as="geometry">
            <Array as="points">
              <mxPoint x="-90" y="1170" />
              <mxPoint x="70" y="1170" />
            </Array>
          </mxGeometry>
        </mxCell>
        <mxCell id="8jfB2x_in3vzI59CDTxY-25" value="Dpto Fabricación" style="whiteSpace=wrap;html=1;rounded=0;" parent="1" vertex="1">
          <mxGeometry x="-150" y="1080" width="120" height="60" as="geometry" />
        </mxCell>
        <mxCell id="8jfB2x_in3vzI59CDTxY-27" value="Dpto de Productos 1" style="whiteSpace=wrap;html=1;rounded=0;" parent="1" vertex="1">
          <mxGeometry x="-320" y="1200" width="120" height="60" as="geometry" />
        </mxCell>
        <mxCell id="8jfB2x_in3vzI59CDTxY-29" value="Dpto de Productos 2" style="whiteSpace=wrap;html=1;rounded=0;" parent="1" vertex="1">
          <mxGeometry x="-150" y="1200" width="120" height="60" as="geometry" />
        </mxCell>
        <mxCell id="8jfB2x_in3vzI59CDTxY-32" value="&lt;span&gt;Dpto de Productos 3&lt;/span&gt;" style="rounded=0;whiteSpace=wrap;html=1;" parent="1" vertex="1">
          <mxGeometry x="10" y="1200" width="120" height="60" as="geometry" />
        </mxCell>
        <mxCell id="8jfB2x_in3vzI59CDTxY-34" value="1" style="ellipse;whiteSpace=wrap;html=1;aspect=fixed;" parent="1" vertex="1">
          <mxGeometry x="-110" y="1020" width="40" height="40" as="geometry" />
        </mxCell>
        <mxCell id="8jfB2x_in3vzI59CDTxY-35" value="" style="edgeStyle=orthogonalEdgeStyle;rounded=0;orthogonalLoop=1;jettySize=auto;html=1;endArrow=none;endFill=0;" parent="1" source="8jfB2x_in3vzI59CDTxY-8" target="8jfB2x_in3vzI59CDTxY-34" edge="1">
          <mxGeometry relative="1" as="geometry">
            <mxPoint x="-90" y="1000" as="sourcePoint" />
            <mxPoint x="-90" y="1080" as="targetPoint" />
          </mxGeometry>
        </mxCell>
        <mxCell id="8jfB2x_in3vzI59CDTxY-37" value="Sec. de Liq. de Haberes" style="whiteSpace=wrap;html=1;rounded=0;" parent="1" vertex="1">
          <mxGeometry x="970" y="1080" width="120" height="60" as="geometry" />
        </mxCell>
        <mxCell id="8jfB2x_in3vzI59CDTxY-39" value="Sec. de Planificación" style="whiteSpace=wrap;html=1;rounded=0;" parent="1" vertex="1">
          <mxGeometry x="1290" y="1080" width="120" height="60" as="geometry" />
        </mxCell>
        <mxCell id="8jfB2x_in3vzI59CDTxY-42" value="Oficina de Capacitación de Personal" style="whiteSpace=wrap;html=1;rounded=0;" parent="1" vertex="1">
          <mxGeometry x="1130" y="1080" width="120" height="60" as="geometry" />
        </mxCell>
        <mxCell id="8jfB2x_in3vzI59CDTxY-44" value="3" style="ellipse;whiteSpace=wrap;html=1;aspect=fixed;" parent="1" vertex="1">
          <mxGeometry x="1170" y="1020" width="40" height="40" as="geometry" />
        </mxCell>
        <mxCell id="8jfB2x_in3vzI59CDTxY-53" value="2" style="ellipse;whiteSpace=wrap;html=1;aspect=fixed;" parent="1" vertex="1">
          <mxGeometry x="530" y="1010" width="40" height="40" as="geometry" />
        </mxCell>
        <mxCell id="8jfB2x_in3vzI59CDTxY-57" value="&lt;h1&gt;Errores&lt;/h1&gt;&lt;p style=&quot;font-size: 13px&quot;&gt;&lt;font style=&quot;font-size: 13px&quot;&gt;1) Delegación inefectiva&lt;/font&gt;&lt;/p&gt;&lt;p style=&quot;font-size: 13px&quot;&gt;&lt;font style=&quot;font-size: 13px&quot;&gt;2) Mezcla de criterios&lt;/font&gt;&lt;/p&gt;&lt;p style=&quot;font-size: 13px&quot;&gt;&lt;font style=&quot;font-size: 13px&quot;&gt;3) Mezcla de criterios&lt;/font&gt;&lt;/p&gt;" style="text;html=1;strokeColor=none;fillColor=none;spacing=5;spacingTop=-20;whiteSpace=wrap;overflow=hidden;rounded=0;" parent="1" vertex="1">
          <mxGeometry x="850" y="680" width="190" height="120" as="geometry" />
        </mxCell>
        <mxCell id="8jfB2x_in3vzI59CDTxY-58" value="Asesoría de Contabilidad" style="whiteSpace=wrap;html=1;rounded=0;" parent="1" vertex="1">
          <mxGeometry x="650" y="940" width="120" height="60" as="geometry" />
        </mxCell>
        <mxCell id="8jfB2x_in3vzI59CDTxY-60" value="Asesoría Contable" style="whiteSpace=wrap;html=1;rounded=0;" parent="1" vertex="1">
          <mxGeometry x="650" y="800" width="120" height="60" as="geometry" />
        </mxCell>
        <mxCell id="gh9KZUdzetE_i40HpZC7-3" value="Asesoría Jurídica" style="whiteSpace=wrap;html=1;rounded=0;" vertex="1" parent="1">
          <mxGeometry x="1318" y="940" width="120" height="60" as="geometry" />
        </mxCell>
      </root>
    </mxGraphModel>
  </diagram>
</mxfile>
